# xmcd
#
# Track frame offsets: 
#        150
#        11937
#        22304
#        42545
#        55083
#        73761
#        86859
#        102592
#        115713
#        127872
#        137190
#        149764
#        159037
#        186527
#        193174
#        210831
#        222387
#        231295
#        247607
#        261032
#        301480
#
# Disc length: 4249 seconds
#
# Revision: 0
# Processed by: cddbd v1.5.2PL0 Copyright (c) Steve Scherf et al.
# Submitted via: ExactAudioCopy v1.0b2
#
DISCID=3e109715
DTITLE=Warren Fahey - Australian Folk Songs - Give Me A Hut - Colonial
DTITLE=Settlers - Warren Fahey (ABC 2009)
DYEAR=2009
DGENRE=Folk
TTITLE0=Australia, Thou Art A Land of Pests
TTITLE1=The Carrier's Song
TTITLE2=The Old Bullock Dray
TTITLE3=The Freehold On The Plain
TTITLE4=The Settler's Lament
TTITLE5=Colonial Experience
TTITLE6=Said Hanrahan
TTITLE7=Sixteen Thousand Miles From Home
TTITLE8=The Cockies Of Bungaree
TTITLE9=New England Cocky
TTITLE10=Jones's Selection
TTITLE11=Stir The Wallaby Stew
TTITLE12=The Old Bark Hut
TTITLE13=Billy Of Tea
TTITLE14=My Old Black Billy
TTITLE15=Old Man Kangaraoo
TTITLE16=Three Black Crows
TTITLE17=The New Chum Chinaman
TTITLE18=The Cane Cutter's Lament
TTITLE19=Billy Barlow
TTITLE20=The Smiths
EXTD=
EXTT0=
EXTT1=
EXTT2=
EXTT3=
EXTT4=
EXTT5=
EXTT6=
EXTT7=
EXTT8=
EXTT9=
EXTT10=
EXTT11=
EXTT12=
EXTT13=
EXTT14=
EXTT15=
EXTT16=
EXTT17=
EXTT18=
EXTT19=
EXTT20=
PLAYORDER=
